<svg xmlns="http://www.w3.org/2000/svg" width="1200" height="630" viewBox="0 0 1200 630" role="img" aria-labelledby="title desc">
  <title id="title">Hari Mohamed Rizq portfolio preview</title>
  <desc id="desc">Dark portfolio preview with AI Systems Engineer positioning.</desc>
  <rect width="1200" height="630" fill="#090909"/>
  <path d="M0 96h1200M0 192h1200M0 288h1200M0 384h1200M0 480h1200M0 576h1200" stroke="rgba(255,255,255,0.06)" stroke-width="1"/>
  <path d="M120 0v630M240 0v630M360 0v630M480 0v630M600 0v630M720 0v630M840 0v630M960 0v630M1080 0v630" stroke="rgba(255,255,255,0.04)" stroke-width="1"/>
  <rect x="80" y="74" width="1040" height="482" rx="28" fill="#121212" stroke="rgba(255,255,255,0.12)"/>
  <rect x="112" y="106" width="190" height="34" rx="17" fill="rgba(0,245,140,0.12)" stroke="rgba(0,245,140,0.32)"/>
  <text x="134" y="129" font-family="JetBrains Mono, monospace" font-size="16" fill="#00f58c">AVAILABLE FOR AI WORK</text>
  <text x="112" y="258" font-family="Bebas Neue, Arial, sans-serif" font-size="104" fill="#f5f5f5" letter-spacing="0">AI SYSTEMS ENGINEER</text>
  <text x="112" y="327" font-family="Outfit, Arial, sans-serif" font-size="34" fill="#cfcfcf">Production-ready AI products, automation systems, and SaaS MVPs.</text>
  <text x="112" y="406" font-family="JetBrains Mono, monospace" font-size="24" fill="#8b8b8b">Python · FastAPI · React · LLMs · Docker · n8n</text>
  <rect x="112" y="462" width="242" height="58" rx="14" fill="#00f58c"/>
  <text x="148" y="500" font-family="Outfit, Arial, sans-serif" font-size="22" font-weight="700" fill="#04100a">View Projects</text>
  <circle cx="990" cy="220" r="78" fill="none" stroke="#00f58c" stroke-width="18"/>
  <path d="M918 356h144" stroke="#00f58c" stroke-width="18" stroke-linecap="round"/>
  <path d="M990 284v144" stroke="#f5f5f5" stroke-width="18" stroke-linecap="round"/>
</svg>
